<svg width="400" height="60" viewBox="0 0 400 60" fill="none" xmlns="http://www.w3.org/2000/svg" aria-labelledby="logo-title">
<title id="logo-title">Decathlon</title>
<path d="M122.323 51H150.703V41.88H133.123V34.23H148.693V25.74H133.123V18.09H150.703V9.00001H122.323V51ZM185.923 32.91C181.813 39.45 177.823 42.18 172.693 42.18C166.033 42.18 162.163 37.5 162.163 29.37C162.163 21.66 165.733 17.82 171.223 17.82C174.853 17.82 177.853 19.44 178.783 24.84H189.583C188.413 14.55 181.843 8.16 171.343 8.16C159.163 8.16 151.153 16.77 151.153 29.97C151.153 43.26 159.163 51.84 172.333 51.84C180.943 51.84 186.793 48.24 190.663 43.38H205.393V51H216.133V9H200.893L185.923 32.91ZM205.393 34.95H195.883L205.393 19.5V34.95ZM99.2833 9H83.5033V51H99.2833C111.793 51 119.863 42.75 119.863 30C119.863 17.25 111.793 9 99.2833 9ZM99.1333 41.88H94.3033V18.09H99.1333C105.373 18.09 108.883 22.5 108.883 30C108.883 37.47 105.373 41.88 99.1333 41.88ZM340.093 8.16001C327.403 8.16001 318.883 16.77 318.883 30C318.883 43.23 327.403 51.84 340.093 51.84C352.813 51.84 361.303 43.23 361.303 30C361.303 16.77 352.813 8.16001 340.093 8.16001ZM340.093 42.18C333.853 42.18 329.923 38.01 329.923 30C329.923 21.99 333.853 17.82 340.093 17.82C346.363 17.82 350.263 21.99 350.263 30C350.263 38.01 346.363 42.18 340.093 42.18ZM218.833 18.09H229.423V51H240.223V18.09H250.813V9.00001H218.833L218.833 18.09ZM388.873 9.00001V32.13L374.953 9.00001H363.763V51H374.203V26.91L388.693 51H399.313V9L388.873 9.00001ZM303.583 9.00001H292.783V51H319.873V41.91H303.583V9.00001ZM278.863 25.02H264.313V9.00001H253.513V51H264.313V34.08H278.863V51H289.663V9H278.863V25.02Z" fill="#3643BA"/>
<path d="M53.0237 0C29.5716 0 0.399521 24.2649 0.399521 44.3753C0.399521 54.7617 8.37745 60 18.9143 60C26.6514 60 36.0142 57.1701 45.0458 51.721V11.5906C42.6374 15.715 31.3177 32.3332 22.2259 41.1841C17.5897 45.6999 13.9168 47.6568 10.7558 47.6568C7.20334 47.6568 5.51745 45.2484 5.51745 41.6658C5.51745 25.4089 32.8832 4.27496 51.0067 4.27496C58.4728 4.27496 63.2896 7.58656 63.2896 14.0291C63.2896 19.9298 59.2856 27.3357 52.4517 34.1696V46.6031C64.3735 37.1801 71.5084 25.1681 71.5084 15.4741C71.5084 5.26844 63.5606 0 53.0237 0Z" fill="#3643BA"/>
</svg>
