<svg width="630" height="97" viewBox="0 0 630 97" fill="none" xmlns="http://www.w3.org/2000/svg">
<path d="M165.155 27.46C175.49 27.46 184.005 33.44 186.345 43.32H175.165C173.8 39.42 169.9 37.275 165.155 37.275C157.29 37.275 152.48 42.93 152.48 51.25C152.48 59.57 157.225 65.355 165.155 65.355C170.485 65.355 175.165 62.625 176.4 57.295H165.22V49.105H187.45C187.515 50.145 187.58 50.86 187.58 51.9C187.58 65.225 178.025 75.04 165.155 75.04C152.09 75.04 142.015 65.81 142.015 51.25C142.015 36.69 152.09 27.46 165.155 27.46ZM224.545 28.5V38.575H204.395V45.92H221.815V55.28H204.395V63.925H224.545V74H193.865V28.5H224.545ZM269.157 28.5V74H258.627L241.402 46.505V74H230.872V28.5H241.402L258.627 55.8V28.5H269.157ZM308.398 28.5V38.575H288.248V45.92H305.668V55.28H288.248V63.925H308.398V74H277.718V28.5H308.398ZM333.25 38.12H325.255V49.365H333.185C336.24 49.365 338.645 47.22 338.645 43.71C338.645 40.135 336.305 38.12 333.25 38.12ZM339.75 57.555L349.63 74H337.865L330 58.79H325.255V74H314.725V28.5H332.99C341.83 28.5 348.85 34.025 348.85 43.71C348.85 50.73 345.145 55.475 339.75 57.555ZM375.453 65.16C383.318 65.16 387.998 59.635 387.998 51.25C387.998 42.865 383.318 37.34 375.453 37.34C367.588 37.34 362.843 42.865 362.843 51.25C362.843 59.635 367.588 65.16 375.453 65.16ZM375.453 27.46C388.518 27.46 398.528 36.69 398.528 51.25C398.528 65.81 388.518 75.04 375.453 75.04C362.388 75.04 352.313 65.81 352.313 51.25C352.313 36.69 362.388 27.46 375.453 27.46ZM416.171 28.37C415.781 29.93 415.283 31.7933 414.676 33.96C414.07 36.1267 413.42 38.315 412.726 40.525C412.033 42.6917 411.318 44.5767 410.581 46.18H401.741C402.045 44.7067 402.348 43.1683 402.651 41.565C402.955 39.9183 403.236 38.2933 403.496 36.69C403.8 35.0433 404.06 33.4617 404.276 31.945C404.536 30.385 404.731 28.955 404.861 27.655H415.716L416.171 28.37ZM435.086 48.91C437.296 46.505 438.986 43.84 438.986 41.175C438.986 38.965 437.426 36.56 434.371 36.56C431.706 36.56 429.626 38.51 429.431 42.8H418.836C418.966 33.375 424.816 27.46 434.566 27.46C442.626 27.46 449.126 32.855 449.126 41.045C449.126 44.425 448.151 48.65 444.641 52.81L434.566 63.925H449.256V74H419.421V67.76L435.086 48.91ZM477.404 58.92C477.404 54.955 474.089 52.42 470.384 52.42C466.679 52.42 463.689 55.085 463.689 58.92C463.689 62.82 466.679 65.485 470.384 65.485C474.089 65.485 477.404 63.08 477.404 58.92ZM453.679 58.92C453.614 55.8 454.459 52.615 457.904 47.415L470.319 28.5H482.279L471.814 43.515C481.239 43.385 487.609 49.885 487.609 58.92C487.609 68.215 480.329 74.975 470.384 74.975C460.569 74.975 453.679 68.605 453.679 58.92Z" fill="black"/>
</svg>
