<svg width="630" height="97" viewBox="0 0 630 97" fill="none" xmlns="http://www.w3.org/2000/svg">
<path d="M160.826 44.3045C160.016 42.8106 158.844 41.6791 157.308 40.91C155.816 40.0982 154.045 39.6916 151.997 39.6901C148.456 39.6875 145.618 40.8588 143.483 43.2039C141.348 45.5064 140.279 48.5989 140.276 52.4816C140.273 56.6203 141.38 59.8637 143.597 62.212C145.857 64.5177 148.949 65.6719 152.874 65.6747C155.562 65.6767 157.824 64.9957 159.66 63.6317C161.538 62.2677 162.905 60.306 163.76 57.7466L149.872 57.7366L149.878 49.6726L173.686 49.6898L173.679 59.8658C172.866 62.5959 171.477 65.1336 169.513 67.4788C167.591 69.8241 165.137 71.721 162.149 73.1695C159.161 74.618 155.79 75.3409 152.035 75.3381C147.598 75.3349 143.631 74.372 140.133 72.4495C136.679 70.4843 133.972 67.773 132.011 64.3156C130.094 60.8582 129.137 56.9109 129.14 52.4735C129.143 48.0362 130.106 44.0902 132.029 40.6356C133.994 37.1384 136.705 34.431 140.162 32.5135C143.62 30.5534 147.567 29.5749 152.005 29.5781C157.381 29.582 161.902 30.8866 165.57 33.4919C169.28 36.0973 171.731 39.7044 172.922 44.3133L160.826 44.3045ZM190.7 38.8862L190.693 47.9742L205.349 47.9848L205.343 56.4328L190.687 56.4222L190.68 66.2782L207.256 66.2902L207.25 75.0582L179.73 75.0382L179.762 30.1102L207.282 30.1302L207.276 38.8982L190.7 38.8862ZM254.547 75.0925L243.603 75.0846L225.319 47.3593L225.299 75.0713L214.355 75.0634L214.387 30.1354L225.331 30.1433L243.615 57.9966L243.635 30.1566L254.579 30.1645L254.547 75.0925ZM273.45 38.9462L273.443 48.0342L288.099 48.0449L288.093 56.4929L273.437 56.4822L273.43 66.3382L290.006 66.3502L290 75.1182L262.48 75.0983L262.512 30.1703L290.032 30.1902L290.026 38.9582L273.45 38.9462ZM320.017 75.14L310.685 58.1732L308.061 58.1713L308.049 75.1313L297.105 75.1234L297.137 30.1954L315.505 30.2087C319.047 30.2113 322.054 30.8321 324.528 32.0713C327.044 33.3104 328.92 35.0185 330.156 37.1954C331.392 39.3296 332.009 41.7194 332.007 44.3647C332.005 47.3514 331.149 50.0174 329.441 52.3628C327.775 54.7083 325.3 56.3705 322.013 57.3495L332.369 75.149L320.017 75.14ZM308.067 50.4273L314.851 50.4323C316.856 50.4337 318.35 49.9441 319.332 48.9635C320.356 47.9829 320.869 46.5966 320.871 44.8046C320.872 43.098 320.361 41.7536 319.338 40.7715C318.357 39.7895 316.864 39.2977 314.859 39.2963L308.075 39.2913L308.067 50.4273ZM360.102 75.6171C355.878 75.614 351.996 74.6299 348.456 72.6647C344.959 70.6994 342.166 67.9668 340.078 64.4666C338.033 60.9238 337.012 56.955 337.015 52.5603C337.018 48.1657 338.045 44.2198 340.096 40.7226C342.189 37.2254 344.985 34.4968 348.486 32.5367C352.028 30.5766 355.912 29.598 360.136 29.6011C364.36 29.6042 368.22 30.5883 371.718 32.5535C375.257 34.5188 378.029 37.2514 380.032 40.7516C382.077 44.2517 383.098 48.1991 383.095 52.5938C383.092 56.9884 382.065 60.9557 380.014 64.4955C377.964 67.9927 375.188 70.7214 371.688 72.6815C368.188 74.6416 364.326 75.6202 360.102 75.6171ZM360.109 65.6331C363.693 65.6357 366.553 64.4431 368.688 62.0553C370.866 59.6676 371.956 56.511 371.959 52.5857C371.962 48.6177 370.876 45.4596 368.702 43.1113C366.57 40.7205 363.712 39.5237 360.128 39.5211C356.502 39.5185 353.6 40.6897 351.422 43.0348C349.287 45.3799 348.218 48.5578 348.215 52.5685C348.212 56.5365 349.276 59.7159 351.408 62.1068C353.582 64.455 356.483 65.6305 360.109 65.6331ZM391.696 30.264L402.896 30.2721L395.715 47.4189L388.355 47.4136L391.696 30.264ZM407.826 66.4357C409.278 65.2848 409.94 64.7519 409.812 64.8372C413.995 61.3842 417.283 58.5493 419.674 56.3323C422.107 54.1154 424.157 51.7916 425.823 49.3608C427.489 46.93 428.322 44.5626 428.324 42.2586C428.325 40.5093 427.921 39.1436 427.111 38.1617C426.301 37.1798 425.085 36.6882 423.464 36.6871C421.843 36.6859 420.562 37.3036 419.623 38.5403C418.726 39.7343 418.277 41.4406 418.275 43.6593L407.715 43.6516C407.803 40.025 408.573 36.9963 410.026 34.5653C411.521 32.1344 413.463 30.3438 415.853 29.1935C418.286 28.0433 420.975 27.4693 423.919 27.4714C428.996 27.4751 432.814 28.7792 435.372 31.3837C437.973 33.9883 439.272 37.3812 439.268 41.5625C439.265 46.1279 437.705 50.3721 434.587 54.2951C431.47 58.1755 427.499 61.97 422.675 65.6785L439.955 65.691L439.949 74.587L407.821 74.5637L407.826 66.4357ZM477.69 38.0704L457.722 38.0559L457.715 46.8879C458.569 45.9499 459.764 45.1827 461.301 44.5865C462.837 43.9903 464.501 43.6928 466.293 43.6941C469.493 43.6965 472.138 44.4237 474.228 45.8759C476.36 47.3281 477.916 49.2066 478.896 51.5113C479.875 53.816 480.364 56.3124 480.362 59.0004C480.359 63.9924 478.948 67.9593 476.13 70.9013C473.312 73.8006 469.343 75.2484 464.223 75.2446C460.809 75.2422 457.844 74.664 455.328 73.5102C452.811 72.3137 450.871 70.6696 449.507 68.578C448.144 66.4863 447.399 64.0751 447.273 61.3443L457.961 61.3521C458.216 62.675 458.834 63.7847 459.814 64.6814C460.795 65.5355 462.139 65.9631 463.845 65.9644C465.851 65.9658 467.344 65.3269 468.327 64.0476C469.309 62.7683 469.801 61.062 469.802 58.9287C469.804 56.838 469.293 55.2377 468.27 54.1276C467.247 53.0175 465.754 52.4618 463.791 52.4603C462.34 52.4593 461.145 52.8211 460.206 53.5457C459.267 54.2277 458.648 55.1446 458.348 56.2964L447.788 56.2887L447.809 28.4487L477.696 28.4704L477.69 38.0704Z" fill="#1E1E1E"/>
</svg>
